<svg id="visual" viewBox="0 0 900 600" width="900" height="600" xmlns="http://www.w3.org/2000/svg" xmlns:xlink="http://www.w3.org/1999/xlink" version="1.1"><rect x="0" y="0" width="900" height="600" fill="#1e272e"></rect><defs><linearGradient id="grad1_0" x1="33.3%" y1="0%" x2="100%" y2="100%"><stop offset="20%" stop-color="#1e272e" stop-opacity="1"></stop><stop offset="80%" stop-color="#1e272e" stop-opacity="1"></stop></linearGradient></defs><defs><linearGradient id="grad2_0" x1="0%" y1="0%" x2="66.7%" y2="100%"><stop offset="20%" stop-color="#1e272e" stop-opacity="1"></stop><stop offset="80%" stop-color="#1e272e" stop-opacity="1"></stop></linearGradient></defs><g transform="translate(900, 0)"><path d="M0 378.6C-50.2 374.9 -100.4 371.2 -144.9 349.8C-189.4 328.3 -228.1 289.2 -246.8 246.8C-265.5 204.4 -264.1 158.8 -282.7 117.1C-301.3 75.4 -340 37.7 -378.6 0L0 0Z" fill="#FBAE3C"></path></g><g transform="translate(0, 600)"><path d="M0 -378.6C47.2 -364.5 94.3 -350.4 137 -330.7C179.7 -311.1 217.8 -286 255.3 -255.3C292.7 -224.6 329.3 -188.3 349.8 -144.9C370.2 -101.4 374.4 -50.7 378.6 0L0 0Z" fill="#FBAE3C"></path></g></svg>