<svg id="visual" viewBox="0 0 450 900" width="450" height="900" xmlns="http://www.w3.org/2000/svg" xmlns:xlink="http://www.w3.org/1999/xlink" version="1.1"><rect x="0" y="0" width="450" height="900" fill="#001220"></rect><defs><linearGradient id="grad1_0" x1="0%" y1="0%" x2="100%" y2="100%"><stop offset="30%" stop-color="#001220" stop-opacity="1"></stop><stop offset="70%" stop-color="#001220" stop-opacity="1"></stop></linearGradient></defs><defs><linearGradient id="grad2_0" x1="0%" y1="0%" x2="100%" y2="100%"><stop offset="30%" stop-color="#001220" stop-opacity="1"></stop><stop offset="70%" stop-color="#001220" stop-opacity="1"></stop></linearGradient></defs><g transform="translate(450, 0)"><path d="M0 337.5C-33.5 308.1 -67 278.7 -110.6 267C-154.2 255.3 -207.8 261.3 -238.6 238.6C-269.5 216 -277.4 164.7 -290.1 120.2C-302.8 75.6 -320.1 37.8 -337.5 0L0 0Z" fill="#FBAE3C"></path></g><g transform="translate(0, 900)"><path d="M0 -337.5C48.9 -338 97.8 -338.5 129.2 -311.8C160.5 -285.1 174.3 -231.2 195.2 -195.2C216 -159.1 243.9 -140.9 268.8 -111.4C293.7 -81.8 315.6 -40.9 337.5 0L0 0Z" fill="#FBAE3C"></path></g></svg>