<svg width="2212" height="642" viewBox="0 0 2212 642" fill="none" xmlns="http://www.w3.org/2000/svg">
<path d="M64.6263 350.127V78.314H101.523L244.29 291.722V78.314H278.776V350.127H241.879L99.1127 136.533V350.127H64.6263Z" fill="white"/>
<path d="M476.425 286.716L510.912 290.981C505.473 311.129 495.399 326.765 480.689 337.89C465.98 349.014 447.192 354.577 424.325 354.577C395.524 354.577 372.657 345.739 355.722 328.063C338.912 310.263 330.506 285.356 330.506 253.342C330.506 220.215 339.035 194.505 356.093 176.211C373.151 157.917 395.277 148.77 422.47 148.77C448.799 148.77 470.306 157.732 486.993 175.655C503.68 193.578 512.024 218.794 512.024 251.303C512.024 253.28 511.962 256.247 511.839 260.202H364.993C366.229 281.834 372.348 298.397 383.349 309.892C394.35 321.388 408.07 327.136 424.51 327.136C436.747 327.136 447.192 323.922 455.844 317.494C464.497 311.067 471.357 300.807 476.425 286.716ZM366.847 232.761H476.796C475.313 216.198 471.11 203.776 464.188 195.494C453.558 182.639 439.775 176.211 422.841 176.211C407.514 176.211 394.597 181.341 384.09 191.6C373.707 201.86 367.96 215.58 366.847 232.761Z" fill="white"/>
<path d="M1032.29 325.838C1019.93 336.344 1008 343.761 996.502 348.087C985.13 352.413 972.893 354.577 959.79 354.577C938.159 354.577 921.534 349.323 909.915 338.817C898.296 328.186 892.486 314.651 892.486 298.212C892.486 288.57 894.649 279.794 898.975 271.883C903.425 263.849 909.173 257.421 916.219 252.6C923.388 247.78 931.422 244.133 940.322 241.661C946.873 239.931 956.762 238.262 969.988 236.655C996.934 233.441 1016.77 229.609 1029.5 225.16C1029.63 220.586 1029.69 217.681 1029.69 216.445C1029.69 202.848 1026.54 193.269 1020.23 187.707C1011.71 180.167 999.036 176.396 982.225 176.396C966.527 176.396 954.908 179.178 947.368 184.74C939.951 190.179 934.451 199.882 930.866 213.85L898.234 209.4C901.2 195.432 906.083 184.184 912.881 175.655C919.68 167.002 929.507 160.389 942.362 155.816C955.217 151.119 970.112 148.77 987.046 148.77C1003.86 148.77 1017.52 150.748 1028.02 154.703C1038.53 158.659 1046.25 163.665 1051.2 169.722C1056.14 175.655 1059.6 183.195 1061.58 192.342C1062.69 198.028 1063.25 208.287 1063.25 223.12V267.619C1063.25 298.644 1063.93 318.298 1065.29 326.579C1066.77 334.738 1069.62 342.587 1073.82 350.127H1038.96C1035.5 343.205 1033.27 335.108 1032.29 325.838ZM1029.5 251.303C1017.39 256.247 999.221 260.45 974.994 263.911C961.274 265.888 951.57 268.113 945.885 270.585C940.199 273.057 935.811 276.704 932.72 281.525C929.63 286.222 928.085 291.475 928.085 297.285C928.085 306.184 931.422 313.601 938.097 319.534C944.896 325.467 954.784 328.434 967.763 328.434C980.618 328.434 992.052 325.652 1002.06 320.09C1012.08 314.404 1019.43 306.679 1024.13 296.914C1027.71 289.374 1029.5 278.249 1029.5 263.54V251.303Z" fill="white"/>
<path d="M1167.45 350.127V78.314H1261.08C1282.22 78.314 1298.35 79.6119 1309.48 82.2076C1325.05 85.7922 1338.34 92.2816 1349.34 101.676C1363.68 113.789 1374.37 129.302 1381.42 148.214C1388.58 167.002 1392.17 188.51 1392.17 212.737C1392.17 233.38 1389.76 251.673 1384.94 267.619C1380.12 283.564 1373.94 296.79 1366.4 307.297C1358.86 317.68 1350.58 325.9 1341.55 331.956C1332.65 337.89 1321.84 342.401 1309.11 345.491C1296.5 348.582 1281.97 350.127 1265.53 350.127H1167.45ZM1203.42 318.051H1261.45C1279.38 318.051 1293.41 316.382 1303.54 313.044C1313.8 309.707 1321.96 305.01 1328.02 298.953C1336.55 290.424 1343.16 278.991 1347.86 264.652C1352.68 250.19 1355.09 232.7 1355.09 212.181C1355.09 183.751 1350.39 161.934 1341 146.731C1331.73 131.403 1320.42 121.144 1307.07 115.952C1297.42 112.244 1281.91 110.39 1260.53 110.39H1203.42V318.051Z" fill="white"/>
<path d="M1445.94 116.694V78.314H1479.31V116.694H1445.94ZM1445.94 350.127V153.22H1479.31V350.127H1445.94Z" fill="white"/>
<path d="M1515.65 366.443L1548.1 371.264C1549.46 381.276 1553.23 388.569 1559.41 393.142C1567.69 399.322 1579 402.413 1593.34 402.413C1608.79 402.413 1620.72 399.322 1629.13 393.142C1637.53 386.962 1643.22 378.309 1646.18 367.185C1647.91 360.386 1648.72 346.109 1648.59 324.355C1634.01 341.536 1615.84 350.127 1594.08 350.127C1567.01 350.127 1546.06 340.362 1531.23 320.832C1516.4 301.302 1508.98 277.878 1508.98 250.561C1508.98 231.773 1512.38 214.468 1519.18 198.646C1525.98 182.7 1535.8 170.402 1548.66 161.749C1561.64 153.096 1576.84 148.77 1594.27 148.77C1617.51 148.77 1636.67 158.164 1651.75 176.953V153.22H1682.52V323.428C1682.52 354.082 1679.37 375.775 1673.07 388.507C1666.89 401.362 1657 411.498 1643.4 418.914C1629.93 426.331 1613.3 430.039 1593.53 430.039C1570.04 430.039 1551.07 424.724 1536.61 414.094C1522.14 403.587 1515.16 387.703 1515.65 366.443ZM1543.28 248.151C1543.28 273.985 1548.41 292.835 1558.67 304.701C1568.93 316.567 1581.78 322.5 1597.23 322.5C1612.56 322.5 1625.42 316.629 1635.8 304.886C1646.18 293.02 1651.37 274.479 1651.37 249.263C1651.37 225.16 1646 206.989 1635.24 194.752C1624.61 182.515 1611.76 176.396 1596.68 176.396C1581.85 176.396 1569.24 182.453 1558.85 194.567C1548.47 206.557 1543.28 224.418 1543.28 248.151Z" fill="white"/>
<path d="M1734.22 116.567V78.1873H1767.59V116.567H1734.22ZM1734.22 350V153.093H1767.59V350H1734.22Z" fill="white"/>
<path d="M1882.92 320.149L1887.74 349.629C1878.34 351.607 1869.94 352.596 1862.52 352.596C1850.41 352.596 1841.01 350.68 1834.34 346.848C1827.66 343.016 1822.97 338.01 1820.25 331.83C1817.53 325.526 1816.17 312.362 1816.17 292.337V179.051H1791.69V153.093H1816.17V104.33L1849.36 84.3059V153.093H1882.92V179.051H1849.36V294.191C1849.36 303.709 1849.91 309.828 1851.03 312.547C1852.26 315.266 1854.18 317.429 1856.77 319.036C1859.49 320.643 1863.32 321.447 1868.27 321.447C1871.98 321.447 1876.86 321.014 1882.92 320.149Z" fill="white"/>
<path d="M2068.52 326.711C2056.16 337.218 2044.23 344.634 2032.74 348.96C2021.36 353.287 2009.13 355.45 1996.02 355.45C1974.39 355.45 1957.77 350.197 1946.15 339.69C1934.53 329.06 1928.72 315.525 1928.72 299.085C1928.72 289.444 1930.88 280.667 1935.21 272.757C1939.66 264.722 1945.41 258.294 1952.45 253.474C1959.62 248.653 1967.66 245.007 1976.56 242.534C1983.11 240.804 1993 239.135 2006.22 237.528C2033.17 234.315 2053.01 230.483 2065.74 226.033C2065.86 221.459 2065.92 218.555 2065.92 217.319C2065.92 203.722 2062.77 194.142 2056.47 188.58C2047.94 181.04 2035.27 177.27 2018.46 177.27C2002.76 177.27 1991.14 180.051 1983.6 185.613C1976.19 191.052 1970.69 200.755 1967.1 214.723L1934.47 210.273C1937.43 196.305 1942.32 185.057 1949.12 176.528C1955.91 167.876 1965.74 161.263 1978.6 156.689C1991.45 151.992 2006.35 149.644 2023.28 149.644C2040.09 149.644 2053.75 151.621 2064.26 155.577C2074.76 159.532 2082.49 164.538 2087.43 170.595C2092.38 176.528 2095.84 184.068 2097.82 193.215C2098.93 198.901 2099.48 209.16 2099.48 223.993V268.492C2099.48 299.518 2100.16 319.171 2101.52 327.453C2103.01 335.611 2105.85 343.46 2110.05 351H2075.2C2071.73 344.078 2069.51 335.982 2068.52 326.711ZM2065.74 252.176C2053.63 257.12 2035.46 261.323 2011.23 264.784C1997.51 266.762 1987.8 268.986 1982.12 271.459C1976.43 273.931 1972.04 277.577 1968.95 282.398C1965.86 287.095 1964.32 292.348 1964.32 298.158C1964.32 307.058 1967.66 314.474 1974.33 320.407C1981.13 326.34 1991.02 329.307 2004 329.307C2016.85 329.307 2028.29 326.526 2038.3 320.963C2048.31 315.277 2055.67 307.552 2060.36 297.787C2063.95 290.247 2065.74 279.122 2065.74 264.413V252.176Z" fill="white"/>
<path d="M2151.29 351V79.1873H2184.66V351H2151.29Z" fill="white"/>
<mask id="mask0_1_204" style="mask-type:luminance" maskUnits="userSpaceOnUse" x="561" y="115" width="317" height="317">
<path d="M812.093 431.013H627.16C591.147 431.013 561.947 401.813 561.947 365.8V180.88C561.947 144.867 591.147 115.667 627.16 115.667H812.08C847.973 115.667 877.093 144.653 877.293 180.507V366.173C877.107 402.013 847.987 431.013 812.093 431.013ZM719.627 296.96L802.32 379.653C803.427 380.76 804.867 381.307 806.32 381.307C807.76 381.307 809.213 380.76 810.32 379.653L825.96 364.013C828.173 361.8 828.173 358.227 825.96 356.013L743.267 273.333L825.96 190.64C828.173 188.427 828.173 184.853 825.96 182.64L810.32 167C809.213 165.893 807.773 165.347 806.32 165.347C804.867 165.347 803.427 165.893 802.32 167L719.627 249.693L636.933 167C635.827 165.893 634.387 165.347 632.933 165.347C631.48 165.347 630.04 165.893 628.933 167L613.293 182.64C611.08 184.853 611.08 188.427 613.293 190.64L695.987 273.333L613.293 356.027C611.08 358.24 611.08 361.813 613.293 364.027L628.933 379.667C630.04 380.773 631.48 381.32 632.933 381.32C634.373 381.32 635.827 380.773 636.933 379.667L719.627 296.96Z" fill="white"/>
</mask>
<g mask="url(#mask0_1_204)">
<path d="M561.947 431.013H877.307V115.653H561.947V431.013Z" fill="#DF8E49"/>
</g>
<mask id="mask1_1_204" style="mask-type:luminance" maskUnits="userSpaceOnUse" x="611" y="165" width="217" height="217">
<path d="M806.32 381.307C804.867 381.307 803.427 380.76 802.32 379.653L719.627 296.96L636.933 379.653C635.827 380.76 634.387 381.307 632.933 381.307C631.48 381.307 630.04 380.76 628.933 379.653L613.293 364.013C611.08 361.8 611.08 358.227 613.293 356.013L695.987 273.32L613.293 190.627C611.08 188.413 611.08 184.84 613.293 182.627L628.933 166.987C630.04 165.88 631.48 165.333 632.933 165.333C634.373 165.333 635.827 165.88 636.933 166.987L719.627 249.68L802.32 166.987C803.427 165.88 804.867 165.333 806.32 165.333C807.76 165.333 809.213 165.88 810.32 166.987L825.96 182.627C828.173 184.84 828.173 188.413 825.96 190.627L743.267 273.333L825.96 356.027C828.173 358.24 828.173 361.813 825.96 364.027L810.32 379.667C809.213 380.747 807.76 381.307 806.32 381.307Z" fill="white"/>
</mask>
<g mask="url(#mask1_1_204)">
<path d="M611.093 381.307H828.147V165.36H611.093V381.307Z" fill="white"/>
</g>
<path d="M393.809 605H359.378V493.424H395.335C406.158 493.424 415.42 495.658 423.12 500.125C430.82 504.556 436.722 510.93 440.826 519.248C444.93 527.529 446.982 537.444 446.982 548.994C446.982 560.617 444.912 570.623 440.772 579.013C436.631 587.366 430.602 593.795 422.684 598.299C414.766 602.766 405.141 605 393.809 605ZM372.889 593.014H392.938C402.163 593.014 409.809 591.235 415.874 587.675C421.94 584.116 426.461 579.049 429.44 572.475C432.418 565.901 433.907 558.074 433.907 548.994C433.907 539.987 432.436 532.232 429.494 525.731C426.552 519.193 422.157 514.181 416.31 510.694C410.462 507.171 403.18 505.41 394.463 505.41H372.889V593.014Z" fill="white"/>
<path d="M483.607 493.424V605H470.096V493.424H483.607Z" fill="white"/>
<path d="M578.281 528.291C577.082 524.623 575.502 521.336 573.541 518.431C571.616 515.489 569.31 512.982 566.622 510.912C563.971 508.842 560.956 507.262 557.578 506.172C554.201 505.083 550.496 504.538 546.464 504.538C539.854 504.538 533.843 506.245 528.431 509.659C523.02 513.073 518.716 518.104 515.519 524.75C512.323 531.397 510.725 539.551 510.725 549.212C510.725 558.873 512.341 567.027 515.574 573.674C518.806 580.32 523.183 585.351 528.704 588.765C534.224 592.179 540.435 593.886 547.336 593.886C553.728 593.886 559.358 592.524 564.225 589.8C569.128 587.04 572.942 583.153 575.666 578.141C578.426 573.093 579.806 567.154 579.806 560.326L583.947 561.198H550.387V549.212H592.882V561.198C592.882 570.387 590.92 578.377 586.998 585.169C583.111 591.961 577.736 597.227 570.872 600.968C564.043 604.673 556.198 606.525 547.336 606.525C537.457 606.525 528.776 604.201 521.294 599.552C513.849 594.903 508.037 588.293 503.861 579.721C499.72 571.149 497.65 560.98 497.65 549.212C497.65 540.386 498.83 532.45 501.191 525.404C503.588 518.322 506.966 512.292 511.324 507.317C515.683 502.341 520.84 498.527 526.797 495.876C532.753 493.224 539.309 491.899 546.464 491.899C552.348 491.899 557.833 492.788 562.917 494.568C568.039 496.311 572.597 498.799 576.592 502.032C580.624 505.228 583.983 509.06 586.671 513.527C589.359 517.958 591.211 522.88 592.228 528.291H578.281Z" fill="white"/>
<path d="M627.511 493.424V605H614V493.424H627.511Z" fill="white"/>
<path d="M639.81 505.41V493.424H723.492V505.41H688.407V605H674.895V505.41H639.81Z" fill="white"/>
<path d="M722.777 605H708.612L749.582 493.424H763.529L804.498 605H790.333L756.991 511.076H756.119L722.777 605ZM728.007 561.416H785.103V573.401H728.007V561.416Z" fill="white"/>
<path d="M816.932 605V493.424H830.443V593.014H882.309V605H816.932Z" fill="white"/>
<path d="M924.43 493.424H940.556L978.474 586.041H979.782L1017.7 493.424H1033.83V605H1021.19V520.228H1020.1L985.23 605H973.026L938.159 520.228H937.069V605H924.43V493.424Z" fill="white"/>
<path d="M1055.38 605H1041.22L1082.19 493.424H1096.13L1137.1 605H1122.94L1089.59 511.076H1088.72L1055.38 605ZM1060.61 561.416H1117.71V573.401H1060.61V561.416Z" fill="white"/>
<path d="M1183.97 605H1149.54V493.424H1185.49C1196.32 493.424 1205.58 495.658 1213.28 500.125C1220.98 504.556 1226.88 510.93 1230.98 519.248C1235.09 527.529 1237.14 537.444 1237.14 548.994C1237.14 560.617 1235.07 570.623 1230.93 579.013C1226.79 587.366 1220.76 593.795 1212.84 598.299C1204.92 602.766 1195.3 605 1183.97 605ZM1163.05 593.014H1183.1C1192.32 593.014 1199.97 591.235 1206.03 587.675C1212.1 584.116 1216.62 579.049 1219.6 572.475C1222.58 565.901 1224.07 558.074 1224.07 548.994C1224.07 539.987 1222.59 532.232 1219.65 525.731C1216.71 519.193 1212.32 514.181 1206.47 510.694C1200.62 507.171 1193.34 505.41 1184.62 505.41H1163.05V593.014Z" fill="white"/>
<path d="M1260.25 605V493.424H1327.59V505.41H1273.77V543.11H1324.11V555.096H1273.77V593.014H1328.46V605H1260.25Z" fill="white"/>
<path d="M1421.4 521.318C1420.74 515.797 1418.09 511.512 1413.44 508.461C1408.79 505.41 1403.09 503.884 1396.33 503.884C1391.4 503.884 1387.07 504.683 1383.37 506.281C1379.7 507.879 1376.83 510.077 1374.76 512.874C1372.73 515.67 1371.71 518.848 1371.71 522.408C1371.71 525.386 1372.42 527.946 1373.83 530.089C1375.29 532.196 1377.14 533.957 1379.39 535.374C1381.64 536.754 1384 537.898 1386.47 538.806C1388.94 539.678 1391.21 540.386 1393.28 540.931L1404.62 543.982C1407.52 544.745 1410.75 545.798 1414.31 547.142C1417.91 548.486 1421.34 550.32 1424.61 552.644C1427.92 554.932 1430.64 557.874 1432.78 561.47C1434.93 565.066 1436 569.479 1436 574.709C1436 580.738 1434.42 586.186 1431.26 591.053C1428.13 595.92 1423.56 599.788 1417.53 602.657C1411.54 605.527 1404.25 606.961 1395.68 606.961C1387.69 606.961 1380.77 605.672 1374.92 603.093C1369.11 600.514 1364.54 596.919 1361.2 592.306C1357.89 587.693 1356.02 582.336 1355.58 576.234H1369.53C1369.89 580.447 1371.31 583.934 1373.78 586.695C1376.29 589.419 1379.45 591.453 1383.26 592.796C1387.11 594.104 1391.25 594.758 1395.68 594.758C1400.84 594.758 1405.47 593.922 1409.57 592.252C1413.68 590.545 1416.93 588.184 1419.33 585.169C1421.72 582.118 1422.92 578.559 1422.92 574.491C1422.92 570.786 1421.89 567.772 1419.82 565.447C1417.75 563.123 1415.02 561.234 1411.64 559.781C1408.27 558.328 1404.62 557.057 1400.69 555.968L1386.96 552.045C1378.25 549.539 1371.35 545.961 1366.26 541.312C1361.18 536.663 1358.63 530.58 1358.63 523.061C1358.63 516.814 1360.32 511.366 1363.7 506.717C1367.12 502.032 1371.69 498.4 1377.43 495.821C1383.21 493.206 1389.65 491.899 1396.77 491.899C1403.96 491.899 1410.35 493.188 1415.95 495.767C1421.54 498.309 1425.97 501.796 1429.24 506.227C1432.55 510.658 1434.29 515.688 1434.47 521.318H1421.4Z" fill="white"/>
<path d="M1460.29 493.424V605H1446.78V493.424H1460.29Z" fill="white"/>
<path d="M1478.7 493.424H1494.82L1532.74 586.041H1534.05L1571.97 493.424H1588.09V605H1575.45V520.228H1574.36L1539.5 605H1527.29L1492.42 520.228H1491.33V605H1478.7V493.424Z" fill="white"/>
<path d="M1605.07 605V493.424H1642.77C1651.52 493.424 1658.68 495.004 1664.23 498.164C1669.83 501.287 1673.97 505.519 1676.66 510.858C1679.34 516.197 1680.69 522.153 1680.69 528.727C1680.69 535.301 1679.34 541.276 1676.66 546.651C1674 552.027 1669.9 556.313 1664.34 559.509C1658.79 562.669 1651.67 564.249 1642.99 564.249H1615.96V552.263H1642.55C1648.54 552.263 1653.36 551.228 1656.99 549.158C1660.62 547.087 1663.25 544.291 1664.89 540.768C1666.56 537.208 1667.39 533.195 1667.39 528.727C1667.39 524.26 1666.56 520.265 1664.89 516.742C1663.25 513.219 1660.6 510.458 1656.93 508.461C1653.27 506.427 1648.4 505.41 1642.33 505.41H1618.58V605H1605.07Z" fill="white"/>
<path d="M1695.38 605V493.424H1708.89V593.014H1760.75V605H1695.38Z" fill="white"/>
<path d="M1772.38 605V493.424H1839.72V505.41H1785.89V543.11H1836.23V555.096H1785.89V593.014H1840.59V605H1772.38Z" fill="white"/>
<path d="M264.213 545.893H0V539.507H264.213V545.893Z" fill="white"/>
<path d="M2181.92 545.893H1917.71V539.507H2181.92V545.893Z" fill="white"/>
</svg>
