<svg width="2387" height="621" viewBox="0 0 2387 621" fill="none" xmlns="http://www.w3.org/2000/svg">
<path d="M-4.08536 368.127V102.321H19.0777L202.483 333.192H190.332V102.321H218.052V368.127H194.889L11.863 137.256H24.0141V368.127H-4.08536Z" fill="white"/>
<path d="M386.67 370.025C365.912 370.025 347.685 365.722 331.99 357.115C316.295 348.255 304.017 336.23 295.157 321.041C286.297 305.599 281.867 288.005 281.867 268.26C281.867 248.514 286.044 231.047 294.398 215.858C303.005 200.669 314.65 188.771 329.332 180.164C344.268 171.304 360.976 166.874 379.455 166.874C398.188 166.874 414.77 171.178 429.199 179.785C443.882 188.138 455.4 200.036 463.754 215.478C472.108 230.667 476.285 248.261 476.285 268.26C476.285 269.526 476.158 270.918 475.905 272.437C475.905 273.703 475.905 275.095 475.905 276.614H302.372V256.488H461.475L450.843 264.463C450.843 250.033 447.679 237.249 441.35 226.111C435.275 214.719 426.921 205.859 416.289 199.53C405.656 193.201 393.379 190.037 379.455 190.037C365.786 190.037 353.508 193.201 342.622 199.53C331.737 205.859 323.257 214.719 317.181 226.111C311.106 237.502 308.068 250.539 308.068 265.222V269.399C308.068 284.588 311.359 298.005 317.941 309.65C324.776 321.041 334.142 330.028 346.04 336.61C358.191 342.938 371.988 346.103 387.43 346.103C399.581 346.103 410.846 343.951 421.225 339.648C431.857 335.344 440.97 328.762 448.565 319.902L463.754 337.369C454.894 348.001 443.755 356.102 430.338 361.671C417.175 367.241 402.619 370.025 386.67 370.025Z" fill="white"/>
<path d="M1050.88 368.127V324.079L1049.74 316.864V243.198C1049.74 226.237 1044.93 213.2 1035.31 204.087C1025.94 194.973 1011.89 190.417 993.158 190.417C980.248 190.417 967.97 192.569 956.325 196.872C944.68 201.176 934.808 206.871 926.707 213.96L914.556 193.834C924.682 185.227 936.833 178.645 951.009 174.089C965.185 169.279 980.121 166.874 995.816 166.874C1021.64 166.874 1041.51 173.329 1055.43 186.24C1069.61 198.897 1076.7 218.263 1076.7 244.337V368.127H1050.88ZM982.146 370.025C967.211 370.025 954.174 367.62 943.035 362.811C932.15 357.748 923.796 350.913 917.973 342.306C912.151 333.445 909.24 323.32 909.24 311.928C909.24 301.549 911.645 292.182 916.454 283.828C921.517 275.221 929.618 268.386 940.757 263.323C952.148 258.007 967.337 255.349 986.323 255.349H1055.05V275.475H987.083C967.844 275.475 954.427 278.892 946.832 285.727C939.491 292.562 935.82 301.042 935.82 311.168C935.82 322.56 940.25 331.673 949.111 338.508C957.971 345.343 970.375 348.761 986.323 348.761C1001.51 348.761 1014.55 345.343 1025.43 338.508C1036.57 331.42 1044.67 321.294 1049.74 308.131L1055.81 326.737C1050.75 339.901 1041.89 350.406 1029.23 358.254C1016.83 366.102 1001.13 370.025 982.146 370.025Z" fill="white"/>
<path d="M1219.54 368.127V102.321H1327.77C1356.12 102.321 1380.93 108.017 1402.19 119.409C1423.71 130.547 1440.42 146.116 1452.31 166.115C1464.21 186.113 1470.16 209.15 1470.16 235.224C1470.16 261.298 1464.21 284.335 1452.31 304.333C1440.42 324.332 1423.71 340.027 1402.19 351.419C1380.93 362.557 1356.12 368.127 1327.77 368.127H1219.54ZM1247.64 343.825H1326.25C1349.79 343.825 1370.17 339.268 1387.38 330.155C1404.85 320.788 1418.39 308.004 1428.01 291.803C1437.63 275.348 1442.44 256.488 1442.44 235.224C1442.44 213.706 1437.63 194.847 1428.01 178.645C1418.39 162.444 1404.85 149.787 1387.38 140.673C1370.17 131.307 1349.79 126.624 1326.25 126.624H1247.64V343.825Z" fill="white"/>
<path d="M1527.47 368.127V168.773H1554.43V368.127H1527.47ZM1541.14 124.725C1535.58 124.725 1530.89 122.826 1527.09 119.029C1523.3 115.232 1521.4 110.675 1521.4 105.359C1521.4 100.043 1523.3 95.6129 1527.09 92.0688C1530.89 88.2716 1535.58 86.373 1541.14 86.373C1546.71 86.373 1551.4 88.145 1555.19 91.6891C1558.99 95.2332 1560.89 99.6633 1560.89 104.979C1560.89 110.549 1558.99 115.232 1555.19 119.029C1551.65 122.826 1546.97 124.725 1541.14 124.725Z" fill="white"/>
<path d="M1696.91 443.691C1678.68 443.691 1661.21 441.033 1644.5 435.717C1627.8 430.401 1614.25 422.807 1603.87 412.934L1617.54 392.429C1626.91 400.783 1638.43 407.365 1652.1 412.174C1666.02 417.237 1680.7 419.769 1696.15 419.769C1721.46 419.769 1740.07 413.82 1751.97 401.922C1763.86 390.277 1769.81 372.051 1769.81 347.242V297.498L1773.61 263.323L1770.95 229.148V168.773H1796.77V343.825C1796.77 378.253 1788.29 403.441 1771.33 419.389C1754.62 435.591 1729.82 443.691 1696.91 443.691ZM1691.97 360.532C1672.98 360.532 1655.9 356.482 1640.71 348.381C1625.52 340.027 1613.49 328.509 1604.63 313.826C1596.03 299.144 1591.72 282.31 1591.72 263.323C1591.72 244.337 1596.03 227.63 1604.63 213.2C1613.49 198.518 1625.52 187.126 1640.71 179.025C1655.9 170.924 1672.98 166.874 1691.97 166.874C1709.69 166.874 1725.64 170.545 1739.81 177.886C1753.99 185.227 1765.26 196.113 1773.61 210.542C1781.96 224.972 1786.14 242.565 1786.14 263.323C1786.14 284.082 1781.96 301.675 1773.61 316.105C1765.26 330.534 1753.99 341.546 1739.81 349.141C1725.64 356.735 1709.69 360.532 1691.97 360.532ZM1694.63 336.61C1709.31 336.61 1722.35 333.572 1733.74 327.496C1745.13 321.168 1754.12 312.561 1760.7 301.675C1767.28 290.537 1770.57 277.753 1770.57 263.323C1770.57 248.894 1767.28 236.237 1760.7 225.351C1754.12 214.466 1745.13 205.985 1733.74 199.91C1722.35 193.581 1709.31 190.417 1694.63 190.417C1680.2 190.417 1667.16 193.581 1655.52 199.91C1644.12 205.985 1635.14 214.466 1628.56 225.351C1622.23 236.237 1619.06 248.894 1619.06 263.323C1619.06 277.753 1622.23 290.537 1628.56 301.675C1635.14 312.561 1644.12 321.168 1655.52 327.496C1667.16 333.572 1680.2 336.61 1694.63 336.61Z" fill="white"/>
<path d="M1847.44 368V168.646H1874.4V368H1847.44ZM1861.11 124.598C1855.54 124.598 1850.85 122.7 1847.06 118.902C1843.26 115.105 1841.36 110.548 1841.36 105.232C1841.36 99.9163 1843.26 95.4862 1847.06 91.9421C1850.85 88.1449 1855.54 86.2463 1861.11 86.2463C1866.68 86.2463 1871.36 88.0183 1875.16 91.5624C1878.95 95.1064 1880.85 99.5365 1880.85 104.853C1880.85 110.422 1878.95 115.105 1875.16 118.902C1871.61 122.7 1866.93 124.598 1861.11 124.598Z" fill="white"/>
<path d="M1994.84 369.899C1976.11 369.899 1961.68 364.836 1951.56 354.71C1941.43 344.584 1936.37 330.281 1936.37 311.801V124.598H1963.33V310.282C1963.33 321.927 1966.24 330.914 1972.06 337.243C1978.14 343.571 1986.74 346.736 1997.88 346.736C2009.78 346.736 2019.65 343.318 2027.5 336.483L2036.99 355.849C2031.68 360.659 2025.22 364.203 2017.63 366.481C2010.29 368.759 2002.69 369.899 1994.84 369.899ZM1900.67 191.05V168.646H2024.08V191.05H1900.67Z" fill="white"/>
<path d="M2201.01 369V324.952L2199.87 317.738V244.071C2199.87 227.111 2195.06 214.073 2185.44 204.96C2176.07 195.847 2162.02 191.29 2143.29 191.29C2130.38 191.29 2118.1 193.442 2106.46 197.745C2094.81 202.049 2084.94 207.745 2076.84 214.833L2064.69 194.708C2074.81 186.101 2086.96 179.519 2101.14 174.962C2115.32 170.152 2130.25 167.747 2145.95 167.747C2171.77 167.747 2191.64 174.203 2205.56 187.113C2219.74 199.771 2226.83 219.136 2226.83 245.211V369H2201.01ZM2132.28 370.899C2117.34 370.899 2104.31 368.494 2093.17 363.684C2082.28 358.621 2073.93 351.786 2068.11 343.179C2062.28 334.319 2059.37 324.193 2059.37 312.801C2059.37 302.422 2061.78 293.056 2066.59 284.702C2071.65 276.095 2079.75 269.26 2090.89 264.197C2102.28 258.881 2117.47 256.223 2136.45 256.223H2205.18V276.348H2137.21C2117.98 276.348 2104.56 279.765 2096.96 286.6C2089.62 293.435 2085.95 301.916 2085.95 312.042C2085.95 323.433 2090.38 332.547 2099.24 339.382C2108.1 346.217 2120.51 349.634 2136.45 349.634C2151.64 349.634 2164.68 346.217 2175.57 339.382C2186.7 332.294 2194.81 322.168 2199.87 309.004L2205.94 327.61C2200.88 340.774 2192.02 351.28 2179.36 359.127C2166.96 366.975 2151.26 370.899 2132.28 370.899Z" fill="white"/>
<path d="M2311.38 369V87.2463H2338.34V369H2311.38Z" fill="white"/>
<mask id="mask0_5_27" style="mask-type:luminance" maskUnits="userSpaceOnUse" x="519" y="74" width="351" height="316">
<path d="M796.655 389.347H591.395C551.423 389.347 519.013 360.147 519.013 324.133V139.213C519.013 103.2 551.423 74 591.395 74H796.64C836.479 74 868.799 102.987 869.021 138.84V324.507C868.814 360.347 836.494 389.347 796.655 389.347ZM694.025 255.293L785.807 337.987C787.036 339.093 788.634 339.64 790.247 339.64C791.845 339.64 793.458 339.093 794.687 337.987L812.046 322.347C814.502 320.133 814.502 316.56 812.046 314.347L720.263 231.667L812.046 148.973C814.502 146.76 814.502 143.187 812.046 140.973L794.687 125.333C793.458 124.227 791.86 123.68 790.247 123.68C788.634 123.68 787.036 124.227 785.807 125.333L694.025 208.027L602.242 125.333C601.014 124.227 599.416 123.68 597.803 123.68C596.19 123.68 594.591 124.227 593.363 125.333L576.004 140.973C573.547 143.187 573.547 146.76 576.004 148.973L667.786 231.667L576.004 314.36C573.547 316.573 573.547 320.147 576.004 322.36L593.363 338C594.591 339.107 596.19 339.653 597.803 339.653C599.401 339.653 601.014 339.107 602.242 338L694.025 255.293Z" fill="white"/>
</mask>
<g mask="url(#mask0_5_27)">
<path d="M519.013 389.347H869.036V73.9867H519.013V389.347Z" fill="#DF8E49"/>
</g>
<mask id="mask1_5_27" style="mask-type:luminance" maskUnits="userSpaceOnUse" x="574" y="124" width="241" height="216">
<path d="M790.595 339.973C788.982 339.973 787.383 339.427 786.155 338.32L694.373 255.627L602.59 338.32C601.362 339.427 599.763 339.973 598.15 339.973C596.537 339.973 594.939 339.427 593.711 338.32L576.352 322.68C573.895 320.467 573.895 316.893 576.352 314.68L668.134 231.987L576.352 149.293C573.895 147.08 573.895 143.507 576.352 141.293L593.711 125.653C594.939 124.547 596.537 124 598.15 124C599.749 124 601.362 124.547 602.59 125.653L694.373 208.347L786.155 125.653C787.383 124.547 788.982 124 790.595 124C792.193 124 793.806 124.547 795.034 125.653L812.394 141.293C814.85 143.507 814.85 147.08 812.394 149.293L720.611 232L812.394 314.693C814.85 316.907 814.85 320.48 812.394 322.693L795.034 338.333C793.806 339.413 792.193 339.973 790.595 339.973Z" fill="white"/>
</mask>
<g mask="url(#mask1_5_27)">
<path d="M573.91 339.973H814.821V124.027H573.91V339.973Z" fill="white"/>
</g>
<path d="M343.254 548.387H50V542H343.254V548.387Z" fill="white"/>
<path d="M2223.25 548.387H1930V542H2223.25V548.387Z" fill="white"/>
<path d="M394.82 589V498H431.87C441.577 498 450.07 499.95 457.35 503.85C464.717 507.663 470.437 512.993 474.51 519.84C478.583 526.687 480.62 534.573 480.62 543.5C480.62 552.427 478.583 560.313 474.51 567.16C470.437 574.007 464.717 579.38 457.35 583.28C450.07 587.093 441.577 589 431.87 589H394.82ZM404.44 580.68H431.35C439.41 580.68 446.387 579.12 452.28 576C458.26 572.793 462.897 568.417 466.19 562.87C469.483 557.237 471.13 550.78 471.13 543.5C471.13 536.133 469.483 529.677 466.19 524.13C462.897 518.583 458.26 514.25 452.28 511.13C446.387 507.923 439.41 506.32 431.35 506.32H404.44V580.68ZM502.222 589V498H511.842V589H502.222ZM581.361 589.78C574.428 589.78 568.014 588.653 562.121 586.4C556.314 584.06 551.244 580.81 546.911 576.65C542.664 572.49 539.328 567.593 536.901 561.96C534.561 556.327 533.391 550.173 533.391 543.5C533.391 536.827 534.561 530.673 536.901 525.04C539.328 519.407 542.708 514.51 547.041 510.35C551.374 506.19 556.444 502.983 562.251 500.73C568.144 498.39 574.558 497.22 581.491 497.22C588.424 497.22 594.751 498.303 600.471 500.47C606.278 502.637 611.218 505.93 615.291 510.35L609.311 516.46C605.498 512.647 601.294 509.917 596.701 508.27C592.108 506.623 587.168 505.8 581.881 505.8C576.248 505.8 571.048 506.753 566.281 508.66C561.601 510.48 557.484 513.123 553.931 516.59C550.464 519.97 547.734 523.957 545.741 528.55C543.834 533.057 542.881 538.04 542.881 543.5C542.881 548.873 543.834 553.857 545.741 558.45C547.734 563.043 550.464 567.073 553.931 570.54C557.484 573.92 561.601 576.563 566.281 578.47C571.048 580.29 576.204 581.2 581.751 581.2C586.951 581.2 591.848 580.42 596.441 578.86C601.121 577.3 605.411 574.657 609.311 570.93L614.771 578.21C610.438 582.023 605.368 584.927 599.561 586.92C593.754 588.827 587.688 589.78 581.361 589.78ZM605.541 577.04V543.5H614.771V578.21L605.541 577.04ZM641.998 589V498H651.618V589H641.998ZM698.906 589V506.32H666.926V498H740.506V506.32H708.526V589H698.906ZM736.744 589L778.344 498H787.834L829.434 589H819.294L781.074 503.59H784.974L746.754 589H736.744ZM753.124 564.69L755.984 556.89H808.894L811.754 564.69H753.124ZM844.488 589V498H854.108V580.68H905.068V589H844.488ZM955.064 589V498H962.994L1004.59 568.98H1000.43L1041.64 498H1049.57V589H1040.34V512.43H1042.55L1004.59 577.43H1000.04L961.824 512.43H964.294V589H955.064ZM1064.66 589L1106.26 498H1115.75L1157.35 589H1147.21L1108.99 503.59H1112.89L1074.67 589H1064.66ZM1081.04 564.69L1083.9 556.89H1136.81L1139.67 564.69H1081.04ZM1172.41 589V498H1209.46C1219.16 498 1227.66 499.95 1234.94 503.85C1242.3 507.663 1248.02 512.993 1252.1 519.84C1256.17 526.687 1258.21 534.573 1258.21 543.5C1258.21 552.427 1256.17 560.313 1252.1 567.16C1248.02 574.007 1242.3 579.38 1234.94 583.28C1227.66 587.093 1219.16 589 1209.46 589H1172.41ZM1182.03 580.68H1208.94C1217 580.68 1223.97 579.12 1229.87 576C1235.85 572.793 1240.48 568.417 1243.78 562.87C1247.07 557.237 1248.72 550.78 1248.72 543.5C1248.72 536.133 1247.07 529.677 1243.78 524.13C1240.48 518.583 1235.85 514.25 1229.87 511.13C1223.97 507.923 1217 506.32 1208.94 506.32H1182.03V580.68ZM1288.39 538.69H1336.49V546.88H1288.39V538.69ZM1289.43 580.68H1344.16V589H1279.81V498H1342.21V506.32H1289.43V580.68ZM1425.89 589.78C1419.13 589.78 1412.63 588.697 1406.39 586.53C1400.23 584.277 1395.47 581.417 1392.09 577.95L1395.86 570.54C1399.06 573.66 1403.35 576.303 1408.73 578.47C1414.19 580.55 1419.91 581.59 1425.89 581.59C1431.61 581.59 1436.24 580.897 1439.8 579.51C1443.44 578.037 1446.08 576.087 1447.73 573.66C1449.46 571.233 1450.33 568.547 1450.33 565.6C1450.33 562.047 1449.29 559.187 1447.21 557.02C1445.21 554.853 1442.57 553.163 1439.28 551.95C1435.98 550.65 1432.34 549.523 1428.36 548.57C1424.37 547.617 1420.38 546.62 1416.4 545.58C1412.41 544.453 1408.73 542.98 1405.35 541.16C1402.05 539.34 1399.37 536.957 1397.29 534.01C1395.29 530.977 1394.3 527.033 1394.3 522.18C1394.3 517.673 1395.47 513.557 1397.81 509.83C1400.23 506.017 1403.92 502.983 1408.86 500.73C1413.8 498.39 1420.12 497.22 1427.84 497.22C1432.95 497.22 1438.02 497.957 1443.05 499.43C1448.07 500.817 1452.41 502.767 1456.05 505.28L1452.8 512.95C1448.9 510.35 1444.74 508.443 1440.32 507.23C1435.98 506.017 1431.78 505.41 1427.71 505.41C1422.25 505.41 1417.74 506.147 1414.19 507.62C1410.63 509.093 1407.99 511.087 1406.26 513.6C1404.61 516.027 1403.79 518.8 1403.79 521.92C1403.79 525.473 1404.78 528.333 1406.78 530.5C1408.86 532.667 1411.54 534.357 1414.84 535.57C1418.22 536.783 1421.9 537.867 1425.89 538.82C1429.87 539.773 1433.82 540.813 1437.72 541.94C1441.7 543.067 1445.34 544.54 1448.64 546.36C1452.02 548.093 1454.7 550.433 1456.7 553.38C1458.78 556.327 1459.82 560.183 1459.82 564.95C1459.82 569.37 1458.6 573.487 1456.18 577.3C1453.75 581.027 1450.02 584.06 1445 586.4C1440.06 588.653 1433.69 589.78 1425.89 589.78ZM1480.78 589V498H1490.4V589H1480.78ZM1520.01 589V498H1527.94L1569.54 568.98H1565.38L1606.59 498H1614.52V589H1605.29V512.43H1607.5L1569.54 577.43H1564.99L1526.77 512.43H1529.24V589H1520.01ZM1644.17 589V498H1678.23C1685.94 498 1692.57 499.257 1698.12 501.77C1703.66 504.197 1707.91 507.75 1710.86 512.43C1713.89 517.023 1715.41 522.613 1715.41 529.2C1715.41 535.613 1713.89 541.16 1710.86 545.84C1707.91 550.433 1703.66 553.987 1698.12 556.5C1692.57 559.013 1685.94 560.27 1678.23 560.27H1649.5L1653.79 555.72V589H1644.17ZM1653.79 556.5L1649.5 551.82H1677.97C1687.07 551.82 1693.96 549.87 1698.64 545.97C1703.4 541.983 1705.79 536.393 1705.79 529.2C1705.79 521.92 1703.4 516.287 1698.64 512.3C1693.96 508.313 1687.07 506.32 1677.97 506.32H1649.5L1653.79 501.77V556.5ZM1736.21 589V498H1745.83V580.68H1796.79V589H1736.21ZM1821.34 538.69H1869.44V546.88H1821.34V538.69ZM1822.38 580.68H1877.11V589H1812.76V498H1875.16V506.32H1822.38V580.68Z" fill="white"/>
</svg>
