<?xml version="1.0" encoding="UTF-8"?>
<svg id="svg2" xmlns="http://www.w3.org/2000/svg" xmlns:xlink="http://www.w3.org/1999/xlink" viewBox="0 0 2264.98 560.22">
  <defs>
    <style>
      .cls-1 {
        fill: none;
      }

      .cls-2 {
        clip-path: url(#clippath);
      }

      .cls-3 {
        fill: #fff;
      }

      .cls-4, .cls-5, .cls-6, .cls-7 {
        fill: #100f0d;
      }

      .cls-5 {
        font-family: ArialMT, Arial;
        font-size: 379.72px;
      }

      .cls-5, .cls-6, .cls-8, .cls-7 {
        isolation: isolate;
      }

      .cls-6 {
        font-family: ArialHebrew-Light, 'Arial Hebrew';
        font-weight: 300;
      }

      .cls-6, .cls-7 {
        font-size: 153.42px;
      }

      .cls-9 {
        clip-path: url(#clippath-1);
      }

      .cls-10 {
        clip-path: url(#clippath-2);
      }

      .cls-7 {
        font-family: MyriadPro-Regular, 'Myriad Pro';
      }
    </style>
    <clipPath id="clippath">
      <path class="cls-1" d="m841.61,312.19V126.5c0,.13,0,.25,0,.38v184.93c0,.13,0,.25,0,.38"/>
    </clipPath>
    <clipPath id="clippath-1">
      <path class="cls-1" d="m776.39,377.02h-184.93c-36.02,0-65.22-29.2-65.22-65.22V126.88c0-36.02,29.2-65.22,65.22-65.22h184.93c35.89,0,65.01,28.99,65.22,64.83v185.69c-.21,35.84-29.33,64.83-65.22,64.83m-92.46-134.05l82.69,82.69c1.1,1.1,2.55,1.66,4,1.66s2.89-.55,4-1.66l15.64-15.64c2.21-2.21,2.21-5.79,0-7.99l-82.69-82.69,82.69-82.69c2.21-2.21,2.21-5.79,0-8l-15.64-15.64c-1.1-1.1-2.55-1.66-4-1.66s-2.89.55-4,1.66l-82.69,82.69-82.69-82.69c-1.1-1.1-2.55-1.66-4-1.66s-2.89.55-4,1.66l-15.64,15.64c-2.21,2.21-2.21,5.79,0,8l82.69,82.69-82.69,82.69c-2.21,2.21-2.21,5.79,0,7.99l15.64,15.64c1.1,1.1,2.55,1.66,4,1.66s2.89-.55,4-1.66l82.69-82.69"/>
    </clipPath>
    <clipPath id="clippath-2">
      <path class="cls-1" d="m770.61,327.32c-1.45,0-2.89-.55-4-1.66l-82.69-82.69-82.69,82.69c-1.1,1.1-2.55,1.66-4,1.66s-2.89-.55-4-1.66l-15.64-15.64c-2.21-2.21-2.21-5.79,0-7.99l82.69-82.69-82.69-82.69c-2.21-2.21-2.21-5.79,0-8l15.64-15.64c1.1-1.1,2.55-1.66,4-1.66s2.89.55,4,1.66l82.69,82.69,82.69-82.69c1.1-1.1,2.55-1.66,4-1.66s2.89.55,4,1.66l15.64,15.64c2.21,2.21,2.21,5.79,0,8l-82.69,82.69,82.69,82.69c2.21,2.21,2.21,5.79,0,7.99l-15.64,15.64c-1.1,1.1-2.55,1.66-4,1.66"/>
    </clipPath>
  </defs>
  <g id="g8">
    <g id="g10">
      <g id="g12">
        <g id="text16" class="cls-8">
          <text class="cls-5" transform="translate(0 325.86)"><tspan x="0" y="0">N</tspan></text>
          <text class="cls-5" transform="translate(280.9 325.86)"><tspan x="0" y="0">e</tspan></text>
          <text class="cls-5" transform="translate(527.68 325.86)"><tspan x="0" y="0"> </tspan></text>
          <text class="cls-5" transform="translate(843.06 325.86)"><tspan x="0" y="0">a</tspan></text>
          <text class="cls-5" transform="translate(1102.45 325.86)"><tspan x="0" y="0">D</tspan></text>
          <text class="cls-5" transform="translate(1385.02 325.86)"><tspan x="0" y="0">i</tspan></text>
          <text class="cls-5" transform="translate(1461.04 325.86)"><tspan x="0" y="0">g</tspan></text>
          <text class="cls-5" transform="translate(1716.53 325.86)"><tspan x="0" y="0">i</tspan></text>
          <text class="cls-5" transform="translate(1792.55 325.86)"><tspan x="0" y="0">t</tspan></text>
          <text class="cls-5" transform="translate(1921.23 325.86)"><tspan x="0" y="0">a</tspan></text>
          <text class="cls-5" transform="translate(2180.62 325.86)"><tspan x="0" y="0">l</tspan></text>
        </g>
      </g>
      <g id="g18">
        <g class="cls-2">
          <g id="g20">
            <path id="path26" class="cls-4" d="m841.61,312.19h0V126.5h0v185.69Z"/>
            <g id="g28">
              <g id="text32" class="cls-8">
                <text class="cls-5" transform="translate(0 325.86)"><tspan x="0" y="0">N</tspan></text>
                <text class="cls-5" transform="translate(280.9 325.86)"><tspan x="0" y="0">e</tspan></text>
                <text class="cls-5" transform="translate(527.68 325.86)"><tspan x="0" y="0"> </tspan></text>
                <text class="cls-5" transform="translate(843.06 325.86)"><tspan x="0" y="0">a</tspan></text>
                <text class="cls-5" transform="translate(1102.45 325.86)"><tspan x="0" y="0">D</tspan></text>
                <text class="cls-5" transform="translate(1385.02 325.86)"><tspan x="0" y="0">i</tspan></text>
                <text class="cls-5" transform="translate(1461.04 325.86)"><tspan x="0" y="0">g</tspan></text>
                <text class="cls-5" transform="translate(1716.53 325.86)"><tspan x="0" y="0">i</tspan></text>
                <text class="cls-5" transform="translate(1792.55 325.86)"><tspan x="0" y="0">t</tspan></text>
                <text class="cls-5" transform="translate(1921.23 325.86)"><tspan x="0" y="0">a</tspan></text>
                <text class="cls-5" transform="translate(2180.62 325.86)"><tspan x="0" y="0">l</tspan></text>
              </g>
            </g>
          </g>
        </g>
      </g>
      <g id="g34">
        <g class="cls-9">
          <g id="g36">
            <path id="path42" class="cls-4" d="m526.25,377.02h315.36V61.66h-315.36v315.36Z"/>
            <g id="g44">
              <g id="text48" class="cls-8">
                <text class="cls-5" transform="translate(0 325.86)"><tspan x="0" y="0">N</tspan></text>
                <text class="cls-5" transform="translate(280.9 325.86)"><tspan x="0" y="0">e</tspan></text>
                <text class="cls-5" transform="translate(527.68 325.86)"><tspan x="0" y="0"> </tspan></text>
                <text class="cls-5" transform="translate(843.06 325.86)"><tspan x="0" y="0">a</tspan></text>
                <text class="cls-5" transform="translate(1102.45 325.86)"><tspan x="0" y="0">D</tspan></text>
                <text class="cls-5" transform="translate(1385.02 325.86)"><tspan x="0" y="0">i</tspan></text>
                <text class="cls-5" transform="translate(1461.04 325.86)"><tspan x="0" y="0">g</tspan></text>
                <text class="cls-5" transform="translate(1716.53 325.86)"><tspan x="0" y="0">i</tspan></text>
                <text class="cls-5" transform="translate(1792.55 325.86)"><tspan x="0" y="0">t</tspan></text>
                <text class="cls-5" transform="translate(1921.23 325.86)"><tspan x="0" y="0">a</tspan></text>
                <text class="cls-5" transform="translate(2180.62 325.86)"><tspan x="0" y="0">l</tspan></text>
              </g>
            </g>
          </g>
        </g>
      </g>
      <g id="g50">
        <g class="cls-10">
          <g id="g52">
            <path id="path58" class="cls-3" d="m575.4,327.32h217.06V111.36h-217.06v215.95Z"/>
            <g id="g60">
              <g id="text64" class="cls-8">
                <text class="cls-5" transform="translate(0 325.86)"><tspan x="0" y="0">N</tspan></text>
                <text class="cls-5" transform="translate(280.9 325.86)"><tspan x="0" y="0">e</tspan></text>
                <text class="cls-5" transform="translate(527.68 325.86)"><tspan x="0" y="0"> </tspan></text>
                <text class="cls-5" transform="translate(843.06 325.86)"><tspan x="0" y="0">a</tspan></text>
                <text class="cls-5" transform="translate(1102.45 325.86)"><tspan x="0" y="0">D</tspan></text>
                <text class="cls-5" transform="translate(1385.02 325.86)"><tspan x="0" y="0">i</tspan></text>
                <text class="cls-5" transform="translate(1461.04 325.86)"><tspan x="0" y="0">g</tspan></text>
                <text class="cls-5" transform="translate(1716.53 325.86)"><tspan x="0" y="0">i</tspan></text>
                <text class="cls-5" transform="translate(1792.55 325.86)"><tspan x="0" y="0">t</tspan></text>
                <text class="cls-5" transform="translate(1921.23 325.86)"><tspan x="0" y="0">a</tspan></text>
                <text class="cls-5" transform="translate(2180.62 325.86)"><tspan x="0" y="0">l</tspan></text>
              </g>
            </g>
          </g>
        </g>
      </g>
      <g id="g66">
        <g id="text70" class="cls-8">
          <text class="cls-7" transform="translate(386.75 519.1)"><tspan x="0" y="0">D</tspan></text>
          <text class="cls-7" transform="translate(497.47 519.1)"><tspan x="0" y="0">I</tspan></text>
          <text class="cls-7" transform="translate(529.38 519.1)"><tspan x="0" y="0">G</tspan></text>
          <text class="cls-7" transform="translate(641.37 519.1)"><tspan x="0" y="0">I</tspan></text>
          <text class="cls-7" transform="translate(673.28 519.1)"><tspan x="0" y="0">T</tspan></text>
          <text class="cls-7" transform="translate(745.57 519.1)"><tspan x="0" y="0">A</tspan></text>
          <text class="cls-7" transform="translate(844.3 519.1)"><tspan x="0" y="0">L</tspan></text>
          <text class="cls-6" transform="translate(913.45 519.1)"><tspan x="0" y="0"> </tspan></text>
          <text class="cls-7" transform="translate(951.8 519.1)"><tspan x="0" y="0">M</tspan></text>
          <text class="cls-7" transform="translate(1078.18 519.1)"><tspan x="0" y="0">A</tspan></text>
          <text class="cls-7" transform="translate(1176.91 519.1)"><tspan x="0" y="0">D</tspan></text>
          <text class="cls-7" transform="translate(1287.63 519.1)"><tspan x="0" y="0">E</tspan></text>
          <text class="cls-6" transform="translate(1368.01 519.1)"><tspan x="0" y="0"> </tspan></text>
          <text class="cls-7" transform="translate(1406.36 519.1)"><tspan x="0" y="0">S</tspan></text>
          <text class="cls-7" transform="translate(1474.15 519.1)"><tspan x="0" y="0">I</tspan></text>
          <text class="cls-7" transform="translate(1506.07 519.1)"><tspan x="0" y="0">M</tspan></text>
          <text class="cls-7" transform="translate(1632.44 519.1)"><tspan x="0" y="0">P</tspan></text>
          <text class="cls-7" transform="translate(1709.45 519.1)"><tspan x="0" y="0">L</tspan></text>
          <text class="cls-7" transform="translate(1778.59 519.1)"><tspan x="0" y="0">E</tspan></text>
        </g>
      </g>
      <path id="path72" class="cls-4" d="m304.65,472.9H40.43v-6.39h264.22v6.39"/>
      <path id="path74" class="cls-4" d="m2222.35,472.9h-264.21v-6.39h264.21v6.39"/>
    </g>
  </g>
</svg>