<svg id="visual" viewBox="0 0 900 675" width="900" height="675" xmlns="http://www.w3.org/2000/svg" xmlns:xlink="http://www.w3.org/1999/xlink" version="1.1"><rect x="0" y="0" width="900" height="675" fill="#1e272e"></rect><path d="M0 529L30 519.3C60 509.7 120 490.3 180 470C240 449.7 300 428.3 360 415.3C420 402.3 480 397.7 540 393.8C600 390 660 387 720 380.3C780 373.7 840 363.3 870 358.2L900 353L900 676L870 676C840 676 780 676 720 676C660 676 600 676 540 676C480 676 420 676 360 676C300 676 240 676 180 676C120 676 60 676 30 676L0 676Z" fill="#F0B154" stroke-linecap="round" stroke-linejoin="miter"></path></svg>