<svg width="861" height="688" viewBox="0 0 861 688" fill="none" xmlns="http://www.w3.org/2000/svg">
<g clip-path="url(#clip0_1_39)">
<path d="M217.107 386H5C3.67439 385.998 2.4035 385.471 1.46616 384.534C0.528807 383.596 0.00153768 382.326 0 381V127C0.00153768 125.674 0.528807 124.404 1.46616 123.466C2.4035 122.529 3.67439 122.002 5 122H217.107C218.432 122.002 219.703 122.529 220.641 123.466C221.578 124.403 222.105 125.674 222.107 127V381C222.105 382.326 221.578 383.596 220.641 384.534C219.703 385.471 218.432 385.998 217.107 386ZM5 124C4.20462 124.001 3.44207 124.317 2.87965 124.88C2.31724 125.442 2.00089 126.205 2 127V381C2.00089 381.795 2.31724 382.558 2.87965 383.12C3.44207 383.683 4.20462 383.999 5 384H217.107C217.902 383.999 218.665 383.683 219.227 383.12C219.789 382.558 220.106 381.795 220.107 381V127C220.106 126.205 219.789 125.442 219.227 124.88C218.665 124.317 217.902 124.001 217.107 124H5Z" fill="#CACACA"/>
<path d="M188.553 176H33.5533V272H188.553V176Z" fill="#FBAE3C"/>
<path d="M72.5533 308H33.5533V332H72.5533V308Z" fill="#E4E4E4"/>
<path d="M188.553 308H149.553V332H188.553V308Z" fill="#E4E4E4"/>
<path d="M130.553 308H91.5533V332H130.553V308Z" fill="#E4E4E4"/>
<path d="M509.107 264H297C295.674 263.998 294.404 263.471 293.466 262.534C292.529 261.596 292.002 260.326 292 259V5C292.002 3.67438 292.529 2.40349 293.466 1.46614C294.404 0.528787 295.674 0.00151655 297 0H509.107C510.432 0.00151655 511.703 0.528787 512.641 1.46614C513.578 2.40349 514.105 3.67438 514.107 5V259C514.105 260.326 513.578 261.596 512.641 262.534C511.703 263.471 510.432 263.998 509.107 264ZM297 2C296.205 2.00087 295.442 2.31722 294.88 2.87964C294.317 3.44206 294.001 4.20462 294 5V259C294.001 259.795 294.317 260.558 294.88 261.12C295.442 261.683 296.205 261.999 297 262H509.107C509.902 261.999 510.665 261.683 511.227 261.12C511.789 260.558 512.106 259.795 512.107 259V5C512.106 4.20462 511.789 3.44206 511.227 2.87964C510.665 2.31722 509.902 2.00087 509.107 2H297Z" fill="#CACACA"/>
<path d="M511.64 425H299.534C298.208 424.998 296.937 424.471 296 423.534C295.062 422.597 294.535 421.326 294.534 420V345C294.535 343.674 295.062 342.404 296 341.466C296.937 340.529 298.208 340.002 299.534 340H511.64C512.966 340.002 514.237 340.529 515.174 341.466C516.111 342.404 516.639 343.674 516.64 345V420C516.639 421.326 516.111 422.597 515.174 423.534C514.237 424.471 512.966 424.998 511.64 425ZM299.534 342C298.738 342.001 297.976 342.317 297.413 342.88C296.851 343.442 296.535 344.205 296.534 345V420C296.535 420.795 296.851 421.558 297.413 422.12C297.976 422.683 298.738 422.999 299.534 423H511.64C512.436 422.999 513.198 422.683 513.76 422.12C514.323 421.558 514.639 420.795 514.64 420V345C514.639 344.205 514.323 343.442 513.76 342.88C513.198 342.317 512.436 342.001 511.64 342H299.534Z" fill="#CACACA"/>
<path d="M468.053 170.5H338.053C331.426 170.5 326.053 175.873 326.053 182.5V182.5C326.053 189.127 331.426 194.5 338.053 194.5H468.053C474.681 194.5 480.053 189.127 480.053 182.5C480.053 175.873 474.681 170.5 468.053 170.5Z" fill="#E4E4E4"/>
<path d="M468.053 208.5H338.053C331.426 208.5 326.053 213.873 326.053 220.5V220.5C326.053 227.127 331.426 232.5 338.053 232.5H468.053C474.681 232.5 480.053 227.127 480.053 220.5C480.053 213.873 474.681 208.5 468.053 208.5Z" fill="#E4E4E4"/>
<path d="M403.053 143.5C433.981 143.5 459.053 118.428 459.053 87.5C459.053 56.5721 433.981 31.5 403.053 31.5C372.125 31.5 347.053 56.5721 347.053 87.5C347.053 118.428 372.125 143.5 403.053 143.5Z" fill="#FBAE3C"/>
<path d="M466.087 370.5H409.087C402.46 370.5 397.087 375.873 397.087 382.5C397.087 389.127 402.46 394.5 409.087 394.5H466.087C472.714 394.5 478.087 389.127 478.087 382.5C478.087 375.873 472.714 370.5 466.087 370.5Z" fill="#E4E4E4"/>
<path d="M355.087 404.5C367.237 404.5 377.087 394.65 377.087 382.5C377.087 370.35 367.237 360.5 355.087 360.5C342.937 360.5 333.087 370.35 333.087 382.5C333.087 394.65 342.937 404.5 355.087 404.5Z" fill="#FBAE3C"/>
<path d="M859.248 688H478.248C477.983 688 477.728 687.895 477.541 687.707C477.353 687.52 477.248 687.265 477.248 687C477.248 686.735 477.353 686.48 477.541 686.293C477.728 686.105 477.983 686 478.248 686H859.248C859.513 686 859.768 686.105 859.955 686.293C860.143 686.48 860.248 686.735 860.248 687C860.248 687.265 860.143 687.52 859.955 687.707C859.768 687.895 859.513 688 859.248 688Z" fill="#CACACA"/>
<path d="M746.379 472.045C745.681 471.047 745.211 469.908 745.001 468.709C744.791 467.509 744.846 466.278 745.164 465.102C745.481 463.927 746.052 462.835 746.837 461.904C747.622 460.972 748.601 460.225 749.706 459.713L746.762 430.258L760.382 437.407L761.09 464.282C761.827 466.196 761.836 468.313 761.116 470.232C760.395 472.152 758.996 473.741 757.183 474.698C755.369 475.655 753.268 475.913 751.277 475.424C749.286 474.935 747.543 473.733 746.379 472.045Z" fill="#FFB6B6"/>
<path d="M627.094 467.903C626.396 466.905 625.926 465.766 625.716 464.567C625.506 463.367 625.561 462.136 625.878 460.96C626.196 459.785 626.767 458.693 627.552 457.762C628.336 456.831 629.316 456.083 630.421 455.571L627.477 426.116L641.097 433.265L641.805 460.14C642.541 462.054 642.55 464.171 641.83 466.091C641.11 468.01 639.711 469.599 637.898 470.556C636.084 471.513 633.983 471.771 631.992 471.282C630 470.794 628.258 469.591 627.094 467.903Z" fill="#FFB6B6"/>
<path d="M717.949 675.734H707.794L702.962 636.562H717.951L717.949 675.734Z" fill="#FFB6B6"/>
<path d="M720.539 685.578L687.793 685.577V685.163C687.793 681.783 689.136 678.541 691.526 676.151C693.917 673.761 697.158 672.418 700.539 672.417L720.54 672.418L720.539 685.578Z" fill="#2F2E41"/>
<path d="M642.568 675.734H632.412L627.581 636.562H642.569L642.568 675.734Z" fill="#FFB6B6"/>
<path d="M645.158 685.578L612.411 685.577V685.163C612.412 681.783 613.755 678.541 616.145 676.151C618.535 673.761 621.777 672.418 625.157 672.417L645.158 672.418L645.158 685.578Z" fill="#2F2E41"/>
<path d="M710.639 268.438C723.636 261.334 728.412 245.038 721.308 232.042C714.203 219.045 697.908 214.269 684.911 221.373C671.914 228.478 667.138 244.773 674.242 257.77C681.347 270.767 697.642 275.543 710.639 268.438Z" fill="#FFB8B8"/>
<path d="M638.578 453.984L633.608 461.857L623.668 666.875L644.377 666.047L685.796 492.917L702.363 667.703L720.587 668.532L735.374 465.271L638.578 453.984Z" fill="#2F2E41"/>
<path d="M747.095 299.079L713.132 280.855L675.027 278.37L641.448 299.079C641.448 299.079 670.885 386.058 638.578 436.588L633.608 460.611L736.326 468.066C736.326 468.066 729.699 360.378 738.811 347.124C747.923 333.87 747.095 299.079 747.095 299.079Z" fill="#FBAE3C"/>
<path d="M735.374 303.592L747.095 299.079C747.095 299.079 767.804 317.303 766.976 361.207C766.147 405.11 761.673 453.984 761.673 453.984L746.267 456.469L737.983 385.229L726.386 323.102L735.374 303.592Z" fill="#FBAE3C"/>
<path d="M653.613 303.592L641.892 299.079C641.892 299.079 621.183 317.303 622.011 361.207C622.839 405.11 627.314 453.984 627.314 453.984L642.72 456.469L651.004 385.229L662.601 323.102L653.613 303.592Z" fill="#FBAE3C"/>
<path d="M717.163 217.849C714.814 215.545 712.001 213.769 708.912 212.638C705.822 211.507 702.527 211.048 699.246 211.292C693.474 211.758 693.098 211.898 687.913 214.476C684.682 216.005 681.544 217.722 678.514 219.617C678.485 218.386 673.37 213.673 672.542 214.585C671.714 215.498 674.676 221.427 674.015 222.466C673.353 223.505 667.368 219.789 666.743 218.727C671.366 225.102 677.47 237.706 676.005 245.444C677.017 244.302 678.344 243.486 679.819 243.098C681.294 242.71 682.851 242.768 684.293 243.265C685.735 243.762 686.998 244.675 687.921 245.889C688.845 247.103 689.388 248.563 689.482 250.085C689.808 255.376 684.905 261.175 688.111 265.396C689.945 267.811 693.439 268.012 696.471 267.998L718.906 265.497C723.726 257.815 726.731 251.723 728.042 242.75C729.354 233.777 723.595 224.242 717.163 217.849Z" fill="#412906"/>
</g>
<defs>
<clipPath id="clip0_1_39">
<rect width="860.248" height="688" fill="white"/>
</clipPath>
</defs>
</svg>
